<?xml version="1.0" encoding="UTF-8"?>
<!DOCTYPE svg  PUBLIC '-//W3C//DTD SVG 1.1//EN'  'http://www.w3.org/Graphics/SVG/1.1/DTD/svg11.dtd'>
<svg enable-background="new 0 0 1280 995" version="1.1" viewBox="0 0 1280 995" xml:space="preserve" xmlns="http://www.w3.org/2000/svg">
<g stroke-width=".3">
	<path d="m544 19.01c11.63-1.19 23.33-0.83 35-0.86 13.52-0.08 26.92 2.14 40.22 4.38 20 3.23 39.47 9.32 58.15 17.1 5.08 2.54 10.42 4.71 15.12 7.94 7.72 6.66 15.99 12.63 23.85 19.12 14.19 11.73 27.02 25.14 38.02 39.91 3.77 5.66 8.3 11.03 10.66 17.48 1.03 5.34 4.64 9.69 5.81 14.99 1.99 8.01 3.63 16.11 4.85 24.29 2.05 11.45 4.48 22.94 4.07 34.64 0.64 7.68-0.1 15.35-0.1 23.03-0.08 3.1 0.15 6.32-1.16 9.23-2.22-7.43-3.67-15.24-7.85-21.9-6.86-13.54-16.32-25.49-25.79-37.26-3.0099-3.86-7.14-6.53-10.99-9.44-28.85 26.57-63.32 47.92-101.58 57.6-18.49 4.71-37.38 8.23-56.43 9.41 6.23-8.08 12.82-15.93 18.08-24.72 11.04-17.67 22.86-35.39 28.03-55.85-9.78 11.84-21.76 21.52-32.87 32.04-13.83 12.13-25.55 26.54-40.28 37.65-12.27 10.05-26.12 17.88-39.07 26.97 18.14 3.77 36.39 7.38 54.01 13.24 6.95-8.23 17.62-12.65 28.25-13.17 14.73-1.15 28.82 4.18 42.64 8.5 15.94 6.09 32.37 12.32 45.39 23.73 2.29 1.86 3.73 4.54 4.52 7.36 1.87 6.6 2.65 13.47 2.94 20.31 1.65 1.69 3.46 3.41 5.91 3.79 4.8199 1.06 9.61 2.8 14.61 2.61 3 0.1 4.57-3.02 5.84-5.28 3.03-5.28 4.9301-12.68 11.53-14.5 6.7-1.47 13.79-2.01 20.5-0.27 6.73 1.76 13.76 2.1 20.47 3.99 3.27 1.43 6.2 3.52 9.35 5.19 2.95 1.7 6.25 3.12 8.38 5.89 0.73 5.41 1.27 12.09-2.96 16.29-8.31-4.6-16.3-9.92-25.4-12.85 0.39-0.36 1.19-1.08 1.59-1.44-6.49-1.24-13.27-2.34-19.8-0.78-4.26 1.14-8.46 3.54-10.64 7.52-2.84 5.08-5.36 10.37-7.36 15.84-0.58 1.17-0.24 2.42 0.19 3.59-3.23 9.16-5.38 18.91-4.15 28.66 0.69 3.56 1.89 7.3 4.72 9.76 3.4 3.05 6.97 6.19 11.42 7.58 9.11 2.91 18.86 2.48 28.24 1.48 0.52 5.12-3.5 8.99-6.87 12.25-3.04 2.64-6.91 4.62-11.05 4.23-6.63-0.24-13.28-0.67-19.87-1.49-5.23-1.48-9.51-4.96-13.68-8.28-2.84-2.24-5.2-5.11-6.54-8.47-3.35-7.56-2.26-16.04-2.02-24.04 0.24-8.13 2.9-15.95 3.41-24.03 0.41-2.79-1.93-5.18-4.46-5.88-3.5099-0.99-7.19-1.47-10.83-1.25-2.71 0-4.32 2.77-5.07 5.06-4.05 13.83-9.63 27.33-17.67 39.35-3.02 6.06-9.72 8.47-15.95 9.67-4.25-1.73-8.89-0.51-13.32-0.78-4.1 0.11-8.46-0.99-12.3 0.89-19.21-1.03-38.15-7.12-54.52-17.21-5.13-2.64-10.42-5.3-14.06-9.93-7.45-6.31-10.34-16.45-10.05-25.93 0.37-9.91 2.04-19.74 4.64-29.3 0.8-3.05 1.57-6.23 1.04-9.4-0.91-2.21-3.18-3.48-5.47-3.74-16.57-2.79-32.97-6.44-49.51-9.34-7.22-1.29-14.56-2.13-21.59-4.3-3.5-1.14-7.19-2.59-9.53-5.58-1.68-2.9-2.29-6.27-3.73-9.28-1.97-4.67-5.85-8.15-9.8-11.15-4.77-3.48-9.9-7.33-16.12-7.13-10.39-0.05-21.5-0.68-31 4.23-7.87 5.13-13.28 13.1-18.09 20.99-3.21 6.16-5.95 12.62-7.62 19.38-1.61 6.51 0.04 13.17 0.45 19.72 0.32 7.13 3.3 13.72 5.92 20.25 3.33 8.41 8.96 15.58 13.85 23.11 5.48 7.42 11.96 14.32 19.88 19.17 0.95 0.7 2.16 1.23 2.76 2.32-5.29 7.49-12.07 13.85-18.72 20.12-1.39-2.97-3.83-5.22-5.53-7.98-11.68-19.18-21.69-39.41-29.41-60.51-9.99-25.61-16.22-52.67-18.89-80.02-0.29-6.51-1.04-13.03-0.44-19.55 0.4-6.99-0.18-14.04 0.74-21 1.32-10.59 1.62-21.51 5.48-31.58 1.33-4.19 1.75-8.62 3.16-12.79 3.35-11.41 9.24-21.81 14.8-32.25 3.39-6.86 6.54-13.87 10.49-20.44 7.76-13.71 18.74-25.2 30.18-35.87 6.11-5.95 12.27-11.96 19.56-16.47 10.83-6.75 21.38-14.53 33.88-17.9 6.35-1.6 12.76-3.03 18.94-5.24 5.94-2.42 12.37-0.27 18.53-1.03 13.35-1.53 26.66-3.42 40.07-4.39m49.83 245.32c0.4 0.34 1.21 1.01 1.61 1.34-9.06 0.2-16.03 7.42-19.49 15.21-3.17 10.25-6.36 20.6-7.42 31.32-0.15-1.2-0.54-2.33-1.17-3.38-0.49 6.45-0.51 12.96-0.05 19.42l1.24-1.6c0.62 7.83 5.49 14.63 11.77 19.04 6.12 4.43 12.93 7.98 20.24 9.96 13.03 3.49 26.72 4.44 40.1 2.97 5.98-1.74 9.78-7.1 12.66-12.29 4.59-9 8.15-18.54 10.57-28.35 1.41-7.24 3.34-14.55 2.35-21.98 0.06-2.94-1.58-5.58-3.78-7.39-8.41-7.15-18.36-12.12-28.31-16.72-8.31-3.75-17.36-5.37-26.35-6.47 0.79-0.05 2.38-0.16 3.17-0.21l-0.06-1.09c-5.69-0.37-11.41-0.39-17.08 0.22m120.11 91.66c0.06 2.78-0.33 5.71 0.81 8.35 0.3-5.2 0.34-10.43 0.11-15.63-1.25 2.22-0.8 4.84-0.92 7.28z" fill="#2D2D2D" stroke="#2D2D2D"/>
	<path d="m589.09 180.14c11.11-10.52 23.09-20.2 32.87-32.04-5.17 20.46-16.99 38.18-28.03 55.85-5.26 8.79-11.85 16.64-18.08 24.72 19.05-1.18 37.94-4.7 56.43-9.41 38.26-9.68 72.73-31.03 101.58-57.6 3.85 2.91 7.98 5.58 10.99 9.44 9.47 11.77 18.93 23.72 25.79 37.26 4.18 6.66 5.63 14.47 7.85 21.9 1.47 3.91-0.63 7.75-0.84 11.69-2.35 17.95-5.61 35.9-11.3 53.12-6.71-1.89-13.74-2.23-20.47-3.99-6.71-1.74-13.8-1.2-20.5 0.27-6.6 1.82-8.5 9.22-11.53 14.5-1.27 2.26-2.84 5.38-5.84 5.28-5 0.19-9.79-1.55-14.61-2.61-2.45-0.38-4.26-2.1-5.91-3.79-0.29-6.84-1.07-13.71-2.94-20.31-0.79-2.82-2.23-5.5-4.52-7.36-13.02-11.41-29.45-17.64-45.39-23.73-13.82-4.32-27.91-9.65-42.64-8.5-10.63 0.52-21.3 4.94-28.25 13.17-17.62-5.86-35.87-9.47-54.01-13.24 12.95-9.09 26.8-16.92 39.07-26.97 14.73-11.11 26.45-25.52 40.28-37.65z" fill="#F8C5B0" stroke="#F8C5B0"/>
	<path d="m901.28 158.28c2.84-0.13 5.8-0.32 8.49 0.83 9.16 3.43 18.74 5.5 28.21 7.84 4.46 1.14 5.58 6.83 3.3 10.39-3.9901 6.66-6.59 14.01-9.95 20.98-9.18 19.97-19.81 39.23-28.67 59.34-1.84 3.73-2.52 8.38-6.03 11.02-5.86 2.13-11.08-2.24-16.51-3.74-3.89-1.16-4.99-5.35-4.13-8.95 3.3-20.84 8.82-41.26 14.19-61.65 2.96-10.55 5.28-21.26 8.27-31.8 0.45-1.69 1.79-2.91 2.83-4.26z" fill="#F7482E" stroke="#F7482E"/>
	<path d="m960.39 192.43c3.94-0.9 8.09-0.18 11.86 1.18 4.97 1.72 10.13 3.03 14.92 5.24 3.81 1.99 4.02 7.1 2.16 10.51-5.37 9.47-9.84 19.41-15.16 28.91-7.91 14.28-16.38 28.25-24.45 42.42-2.02 3.56-6.86 3.25-10.03 1.61-2.95-1.57-6.74-2.37-8.43-5.54-1.12-5.98 1.96-11.42 3.66-16.95 6.57-19.81 14.25-39.22 20.94-58.99 1.09-2.98 1.83-6.39 4.53-8.39z" fill="#F7482E" stroke="#F7482E"/>
	<path d="m999.39 229.39c3.03-0.12 6.32-0.61 8.99 1.21 3.75 2.4 8.83 2.8 11.57 6.6 1.93 5.97-2.84 10.68-4.97 15.79-4.67 10.13-9.91 19.97-15.23 29.76-0.84 1.43-1.99 2.64-3.04 3.91-5.5 0.69-11.9-0.59-14.87-5.76-0.57-3.64 0.22-7.3 1.48-10.71 4.26-11.79 7.98-23.78 12.47-35.49 0.63-2.11 2.22-3.67 3.6-5.31z" fill="#F7482E" stroke="#F7482E"/>
	<path d="m404.01 240.97c9.5-4.91 20.61-4.28 31-4.23 6.22-0.2 11.35 3.65 16.12 7.13 3.95 3 7.83 6.48 9.8 11.15 1.44 3.01 2.05 6.38 3.73 9.28 2.34 2.99 6.03 4.44 9.53 5.58 7.03 2.17 14.37 3.01 21.59 4.3 16.54 2.9 32.94 6.55 49.51 9.34 2.29 0.26 4.56 1.53 5.47 3.74 0.53 3.17-0.24 6.35-1.04 9.4-2.6 9.56-4.27 19.39-4.64 29.3-0.29 9.48 2.6 19.62 10.05 25.93 3.64 4.63 8.93 7.29 14.06 9.93 16.37 10.09 35.31 16.18 54.52 17.21 8.52 0.44 17.12 1 25.62-0.11 6.23-1.2 12.93-3.61 15.95-9.67 8.04-12.02 13.62-25.52 17.67-39.35 0.75-2.29 2.36-5.06 5.07-5.06 3.64-0.22 7.32 0.26 10.83 1.25 2.53 0.7 4.87 3.09 4.46 5.88-0.51 8.08-3.17 15.9-3.41 24.03-0.2401 8-1.33 16.48 2.02 24.04 1.34 3.36 3.7 6.23 6.54 8.47 4.17 3.32 8.45 6.8 13.68 8.28-0.6 9.67-1.41 19.33-1.55 29.03-1.38 8.54-4.35 17.02-10.27 23.5-11.25 11.75-21.83 24.19-34.15 34.86-9.72 9.25-20.51 17.23-31.2 25.29-3.6899 0.43-7.39-0.17-11.03-0.65-13.29-2.08-26.68-3.52-39.9-6-7.35-1.4-14.53-3.51-21.8-5.18-10.19-2.45-19.91-6.41-29.61-10.28-11.32-4.02-22.61-8.1-33.96-12.02-8.05-3.76-16.67-6.87-25.67-6.76-5.8-0.41-9.83 4.57-14.24 7.53-2.96 2.58-6.08 4.96-9.06 7.51-7.24-0.94-13.75 3.44-20.7 4.61-5.62 1.09-8.82-4.6-12.94-7.27-15.09-11.04-26.29-26.32-35.88-42.15-2.83-4.69-5.26-9.6-7.38-14.64-2.56-5.69-2.08-12.12-1.98-18.2 0.15-3.72 4.21-5.19 6.8-7.05 5.66-3.43 10.14-8.33 14.82-12.89 6.65-6.27 13.43-12.63 18.72-20.12-0.6-1.09-1.81-1.62-2.76-2.32-7.92-4.85-14.4-11.75-19.88-19.17-4.89-7.53-10.52-14.7-13.85-23.11-2.62-6.53-5.6-13.12-5.92-20.25-0.41-6.55-2.06-13.21-0.45-19.72 1.67-6.76 4.41-13.22 7.62-19.38 4.81-7.89 10.22-15.86 18.09-20.99z" fill="#F8C5B0" stroke="#F8C5B0"/>
	<path d="m593.83 264.33c5.67-0.61 11.39-0.59 17.08-0.22l0.06 1.09c-0.79 0.05-2.3799 0.16-3.17 0.21-4.12-0.25-8.24 0.1-12.36 0.26-0.4-0.33-1.21-1-1.61-1.34z" fill="#080808" stroke="#080808"/>
	<path d="m595.44 265.67c4.12-0.16 8.24-0.51 12.36-0.26 8.99 1.1 18.04 2.72 26.35 6.47 9.95 4.6 19.9 9.57 28.31 16.72 2.2 1.81 3.84 4.45 3.78 7.39 0.99 7.43-0.94 14.74-2.35 21.98-2.42 9.81-5.98 19.35-10.57 28.35-2.88 5.19-6.68 10.55-12.66 12.29-13.38 1.47-27.07 0.52-40.1-2.97-7.31-1.98-14.12-5.53-20.24-9.96-6.28-4.41-11.15-11.21-11.77-19.04-0.43-4.81-0.27-9.63-0.02-14.44 1.06-10.72 4.25-21.07 7.42-31.32 3.46-7.79 10.43-15.01 19.49-15.21z" fill="#fff" stroke="#fff"/>
	<path d="m877.43 281.54c3.56-0.6 8.07-0.66 10.51 2.51 1.64 2.03 3.27 4.09 4.6 6.35 0.36 3.39 0.32 6.85 0.02 10.25-1.25 3.01-3.95 5.56-6.89 6.87-4.6 0.19-10.3 1.46-13.74-2.47-1.62-1.74-4.25-3.27-4.05-5.98-0.85-7.12 3.26-14.26 9.55-17.53z" fill="#F7482E" stroke="#F7482E"/>
	<path d="m917.33 300.25c1.31-2.55 3.6-4.49 5.78-6.3 3.9-0.85 7.71 0.75 11.44 1.69 2.91 1.14 5.58 4 4.89 7.36 0.47 4.18-3.54 6.95-6.57 9.05-3.57 0.54-7.23 0.34-10.82 0.16-1.84-0.79-3.16-2.36-4.65-3.61-0.19-2.78-0.41-5.58-0.07-8.35z" fill="#F7482E" stroke="#F7482E"/>
	<path d="m970.22 317.88c-4.65-3.55-3.4399-11.73 1.85-14.08 4.09-0.89 8.45 0.89 10.69 4.44 0.22 2.18 0.09 4.38 0.08 6.57-1.03 1.02-2.05 2.04-3.04 3.07-3.2 0.03-6.4 0.02-9.58 0z" fill="#F7482E" stroke="#F7482E"/>
	<path d="m737.51 307.37c6.53-1.56 13.31-0.46 19.8 0.78-0.4 0.36-1.2 1.08-1.59 1.44-7.48-1.5-15.81-2.7-22.71 1.4-3.78 1.98-5.54 6.05-7.36 9.67-2.29 4.41-4.04 9.07-5.95 13.66-0.43-1.17-0.77-2.42-0.19-3.59 2-5.47 4.52-10.76 7.36-15.84 2.18-3.98 6.38-6.38 10.64-7.52z" fill="#1A1A1A" stroke="#1A1A1A"/>
	<path d="m733.01 310.99c6.9-4.1 15.23-2.9 22.71-1.4 9.1 2.93 17.09 8.25 25.4 12.85 0.76 6.05-1.44 11.88-2.98 17.63-4.56 14.33-8.94 29.01-17.4 41.63l-0.81 0.1c-9.38 1-19.13 1.43-28.24-1.48-4.45-1.39-8.02-4.53-11.42-7.58-2.83-2.46-4.03-6.2-4.72-9.76-1.23-9.75 0.92-19.5 4.15-28.66 1.91-4.59 3.66-9.25 5.95-13.66 1.82-3.62 3.58-7.69 7.36-9.67z" fill="#fff" stroke="#fff"/>
	<path d="m567.36 308.82c0.63 1.05 1.02 2.18 1.17 3.38-0.25 4.81-0.41 9.63 0.02 14.44l-1.24 1.6c-0.46-6.46-0.44-12.97 0.05-19.42z" fill="#0D0D0D" stroke="#0D0D0D"/>
	<path d="m713.94 355.99c0.12-2.44-0.33-5.06 0.92-7.28 0.23 5.2 0.19 10.43-0.11 15.63-1.14-2.64-0.75-5.57-0.81-8.35z" enable-background="new    " fill="#11100F" opacity=".95" stroke="#11100F"/>
	<path d="m623.71 379.03c3.84-1.88 8.2-0.78 12.3-0.89 4.43 0.27 9.07-0.95 13.32 0.78-8.5 1.11-17.1 0.55-25.62 0.11z" fill="#10171B" stroke="#10171B"/>
	<path d="m369.77 391.97c3.21-1 6.6-0.94 9.93-0.78 2.31 2.9 5.27 5.16 7.92 7.73-2.59 1.86-6.65 3.33-6.8 7.05-0.1 6.08-0.58 12.51 1.98 18.2 2.12 5.04 4.55 9.95 7.38 14.64 9.59 15.83 20.79 31.11 35.88 42.15 4.12 2.67 7.32 8.36 12.94 7.27 6.95-1.17 13.46-5.55 20.7-4.61 1.46 13.33 3.77 26.66 3.78 40.08-3.94 9.81-5.93 20.25-9.53 30.19-2.23 8.37-5.76 16.31-8.56 24.49-3.86 13.69-8.01 27.46-14.86 40-1.86-8.38-2.67-16.9-3.8-25.39-0.78-6.41-0.44-12.88-1.11-19.29-0.18-2.4-0.59-4.84-0.09-7.22 4.74-6.56 9.64-13.05 14.03-19.86 2.97-4.29 1.93-9.8 1.31-14.62-2.42-12.89-4.12-25.91-6.8-38.75-1.65 0.46-3.37 0.99-4.28 2.57-8.38 11.88-16.76 23.77-25.6 35.32-2.84 2.96-0.64 7.09 0.3 10.39 2.25 5.1299 4.04 10.44 6.35 15.54 1.55 3.64 5.42 6.58 4.56 10.93-1.2 6.44-3.9 12.51-5.63 18.83-4.1 9.01-7.98 18.13-11.68 27.32-0.73 1.86-1.76 3.58-2.95 5.19-0.72-7.8-3.29-15.23-4.56-22.92-2.36-12.68-5.78-25.13-8.12-37.8-0.54-4.72-1.93-9.27-3.27-13.8-2.93-11.83-6.15-23.58-9.8-35.2-3.44-12.43-7.79-24.65-14.14-35.91-3.87-6.48-5.04-14.05-6.63-21.3-2.18-11.69-4.72-23.45-4.31-35.42 0.15-4.53-0.35-9.08 0.2-13.59 0.88-2.85 3.86-4.18 6.42-5.19 6.07-2.66 12.47-4.43 18.84-6.24z" fill="#fff" stroke="#fff"/>
	<path d="m322.03 402.03c7.3-3.2 14.62-8.15 22.92-7.3 2.15 0.86 3.89 2.48 5.98 3.48-2.56 1.01-5.54 2.34-6.42 5.19-0.55 4.51-0.05 9.06-0.2 13.59-0.41 11.97 2.13 23.73 4.31 35.42 1.59 7.25 2.76 14.82 6.63 21.3 6.35 11.26 10.7 23.48 14.14 35.91 3.65 11.62 6.87 23.37 9.8 35.2 1.34 4.53 2.73 9.08 3.27 13.8 2.34 12.67 5.76 25.12 8.12 37.8 1.27 7.69 3.84 15.12 4.56 22.92 0.31 5.6 1.69 11.07 2.09 16.67 0.83 8.97 0.44 17.99 0.76 26.99 0.07 7.05-0.26 14.17 1.14 21.14 9.51-13.57 16.47-28.69 23.34-43.72 3.07-7.2 6.02-14.47 8.06-22.04 6.85-12.54 11-26.31 14.86-40 2.8-8.18 6.33-16.12 8.56-24.49 3.6-9.94 5.59-20.38 9.53-30.19-0.01-13.42-2.32-26.75-3.78-40.08 2.98-2.55 6.1-4.93 9.06-7.51 3.78 2.92 5.13 7.46 6.04 11.94 3.68 10.91 5.16 22.45 5.63 33.92 0.1 2.27 1.41 4.4 1.18 6.67-2.01 7.09 1.08 14.9-2.28 21.69-4.62 1.27-9.66 0.19-14.28 1.81-0.87 7.05 3.29 13.18 4.54 19.87-1.81 4.47-3.7 8.91-5.03 13.57-6.77 19.24-14.93 37.96-23.56 56.43-7.29 12.27-15.22 24.14-22.69 36.3-5.27 8.56-11.09 16.77-17.39 24.6-2.56 3.09-4.99 6.51-8.59 8.47-2.57 1.42-5.53-0.61-6.89-2.8-7.21-11.91-14.61-23.74-20.78-36.23-7.66-15.22-12.68-31.54-18.59-47.46-3.32-8.98-6.43-18.03-10.07-26.88-3.47-7.97-4.19-16.76-7.18-24.88-0.69-2.72-2.56-5.67-1.16-8.45 1.76-4.01 4.61-7.38 7.04-10.98 3.04-4.4 5.18-9.35 8.35-13.67 1.91-2.77 4.42-5.29 5.11-8.7-12.88-2.8-25.96-4.67-39.11-5.45-3.21-0.06-5.07-3.31-5.84-6.04-1.72-6.41-2.52-13.02-3.52-19.57-1.26-8.34-2.87-16.63-4-25-1.5-10.78-4.53-21.37-4.78-32.3-0.12-4.49-1.26-8.86-2.69-13.1-1.32-3.96 0.04-8.76 3.78-10.9 9.81-5.98 19.47-12.31 30.03-16.94z" fill="#838383" stroke="#838383"/>
	<path d="m288.22 429.87c1.43 4.24 2.57 8.61 2.69 13.1 0.25 10.93 3.28 21.52 4.78 32.3 1.13 8.37 2.74 16.66 4 25 1 6.55 1.8 13.16 3.52 19.57 0.77 2.73 2.63 5.98 5.84 6.04 13.15 0.78 26.23 2.65 39.11 5.45-0.69 3.41-3.2 5.93-5.11 8.7-3.17 4.3199-5.31 9.27-8.35 13.67-2.43 3.6-5.28 6.97-7.04 10.98-1.4 2.78 0.47 5.73 1.16 8.45 2.99 8.12 3.71 16.91 7.18 24.88 3.64 8.85 6.75 17.9 10.07 26.88 5.91 15.92 10.93 32.24 18.59 47.46 6.17 12.49 13.57 24.32 20.78 36.23 1.36 2.19 4.32 4.22 6.89 2.8 3.6-1.96 6.03-5.38 8.59-8.47 6.3-7.83 12.12-16.04 17.39-24.6 7.47-12.16 15.4-24.03 22.69-36.3 8.63-18.47 16.79-37.19 23.56-56.43 1.33-4.66 3.22-9.1 5.03-13.57-1.25-6.69-5.41-12.82-4.54-19.87 4.62-1.62 9.66-0.54 14.28-1.81 3.36-6.79 0.27-14.6 2.28-21.69 3.08 8.45 3.43 17.59 4.2 26.47 0.53 4.6 0.64 9.25 0.72 13.89-0.35 10.47 2.38 20.69 3.87 30.98 3.31 18.96 6.21 37.98 8.81 57.04 2.34 12.6 4.98 25.14 7.22 37.76 1.05 6.81 3.91 13.3 3.75 20.3-0.18 3.17 1.63 5.89 2.83 8.7-21.01-1.08-41.94 3.02-61.87 9.4-5.89 2.18-11.61 4.8-17.21 7.65-1.94-3.39-3.05-7.22-5.35-10.4-3.84-5.17-6.39-11.2-10.72-16.01-4.22 5.57-7.27 11.93-10.03 18.33-1.2 2.57-1.44 5.43-1.36 8.25-11.17 2.34-22.85 0.2-34.03 2.25-4.52 3.41-5.98 9.19-8.1 14.16-3.71 8.6801-4.54 18.2-6.52 27.35-2.22 11.28-1.35 22.82-1.55 34.23-0.12 7.5 0.87 14.98 2.43 22.3 0.44 2.1 1.84 4.63 4.32 4.54 11 0.38 22.04-0.23 33.05 0.26-1.73 3.8-0.72 8.33-3.18 11.85-1.92 3.24-5.4 5.15-8.96 6.03-5.97 1.42-11.58 4.29-17.82 4.47-0.65 1.22-1.49 2.59-0.69 3.99 4.48 11.66 10.45 22.69 16.64 33.53 7.69 13.04 15.7 25.95 25.21 37.77 2.18 2.04 1.19 5.22 1.33 7.87-1.62 1.31-3.24 3.1-5.56 2.6801-48.02-0.05-96.04-0.08-144.04 0.27-47.33-0.11-94.66 0.11-141.99 0.26-10.89 0.41-21.78 0.89-32.68 0.84-4.05-3.71-6.13-8.88-8.39-13.75-4.24-9.8-7.01-20.27-7.93-30.91-2.79-24.69-1.47-49.56-0.37-74.3 0.93-13.85 2.67-27.63 4.99-41.31 13.97-65.84 35.22-129.94 60.54-192.24 7.26-17.28 14.68-34.57 24.27-50.72 9.72-16.73 22.06-31.73 34.7-46.31 14.14-15.84 29.14-31 45.75-44.27 10.98-9.14 23.34-16.47 36.09-22.84 5.19-2.2601 10.1-5.2301 14.24-9.1301z" fill="#8B8B8B" stroke="#8B8B8B"/>
	<path d="m861.45 465.37c2.2-5.6 7.64-9.42 13.48-10.38 21.38-0.4 42.91-0.02 64.03 3.65 27.74 4.7 54.85 12.4 82.03 19.55 41.22 10.81 81.87 23.82 121.54 39.39 20.23 8.06 40.54 15.95 60.71 24.19 5.5601 2.81 2.65 9.92 2.72 14.81-3.36-1.32-6.0399-3.89-9.46-5.07-16.39-7.7-32.91-15.21-50.11-20.93-23.36-8.04-47.53-13.31-71.41-19.51-34.93-8.69-69.51-18.84-104.73-26.33-22.19-4.29-44.67-7.33-67.28-7.88-2.5699 0.15-6.39-0.48-7.4 2.66-2.17 5.43-3.95 11.02-5.6 16.63-5.95 13.71-12.02 27.38-17.57 41.25-5.92 16.16-9.76 32.97-14.43 49.51-6.77 27.4-13.96 54.71-19.71 82.35-6.13 28.01-11.47 56.19-17.77 84.16-5.73 25.57-10.69 51.3-14.94 77.15-2.77 18.76-6.22 37.5-6.82 56.51-0.29 7.06-1.33 14.05-2.5 21.01-0.84 8.93-1.22 17.92-1.31 26.89 0.45 3.84-4.48 2.91-6.9 3.29-70.01 0.13-140.02 0-210.03 0.07-16.66-0.55-33.33-0.28-50-0.34-14 0.16-27.99-0.57-41.99-0.32-22.29 0.3-44.56-1.06-66.84-0.49-2.73-6.12-7.05-12.17-6.32-19.24 0.58-2.11 2.69-4.27 5.09-3.81 27.35 0.36 54.71 0.2 82.07 0.23 32-0.02 63.99 0.48 96 0.3 56.9 0.3 113.81 0.23 170.72 0.19 1.02 2.6 2.8701 4.72 5.16 6.32 4.23 3.08 7.77 7.01 12.04 10.05-2.55-7.17-8.73-12.36-14.87-16.45-0.19-5.66 1.54-11.08 1.67-16.71 1.36-14.01 1.58-28.09 2.6201-42.12 1.81-30.23 7.91-59.95 13.15-89.72 5.18-27.8 9.93-55.67 15.32-83.43 6.3-31.44 13.36-62.73 20.9-93.89 7.29-32.3 15.09-64.61 26.62-95.7 3.6499-9.4399 7.9899-18.6 12.12-27.84m11.65-4.1c-1.86 2.89 1.38 4.83 3.11 6.73-7.07 10.42-10.38 22.82-12.07 35.16 0.36-0.16 1.08-0.48 1.43-0.64 2.97-9.02 6.53-17.86 10.44-26.51 0.94-1.65 1.41-3.78 3.01-4.92 2.55 1.41 4.9 3.67 8.08 3.07-2.36-5.36-7.61-8.58-11.49-12.76-0.62-0.03-1.88-0.1-2.51-0.13z" fill="#DADADA" stroke="#DADADA"/>
	<path d="m873.1 461.27c0.63 0.03 1.89 0.1 2.51 0.13 3.88 4.18 9.13 7.4 11.49 12.76-3.18 0.6-5.53-1.66-8.08-3.07-1.6 1.14-2.07 3.27-3.01 4.92-3.91 8.65-7.47 17.49-10.44 26.51-0.35 0.16-1.07 0.48-1.43 0.64 1.69-12.34 5-24.74 12.07-35.16-1.73-1.9-4.97-3.84-3.11-6.73z" fill="#A9A9A9" stroke="#A9A9A9"/>
	<path d="m895.57 479.52c1.01-3.14 4.83-2.51 7.4-2.66 22.61 0.55 45.09 3.59 67.28 7.88 35.22 7.49 69.8 17.64 104.73 26.33 23.88 6.2 48.05 11.47 71.41 19.51 17.2 5.72 33.72 13.23 50.11 20.93 3.42 1.18 6.1 3.75 9.46 5.07-0.38 3.48-0.26 7.01-0.74 10.49-0.58 0.25-1.73 0.74-2.2999 0.99-3.7001-1.84-7.01-4.34-10.66-6.26-36.31-15.37-74.03-27.2-112.25-36.77-24.68-6.22-49.49-11.86-74.25-17.74-29.09-6.65-58.28-13.09-87.87-17.03-6.59-0.07-13.16-2.04-19.73-1.1-4.0099 0.5-5.09 5.03-8.19 6.99 1.6499-5.61 3.4299-11.2 5.5999-16.63z" fill="#B9B9B9" stroke="#B9B9B9"/>
	<path d="m889.97 496.15c3.1-1.96 4.1801-6.49 8.19-6.99 6.57-0.94 13.14 1.03 19.73 1.1 29.59 3.94 58.78 10.38 87.87 17.03 24.76 5.88 49.57 11.52 74.25 17.74 38.22 9.5699 75.94 21.4 112.25 36.77 3.65 1.92 6.96 4.42 10.66 6.26 0.5699-0.25 1.72-0.74 2.2999-0.99-0.5499 5.37-1.45 10.76-3.5 15.78-7.96-3.6-16.37-6.0699-24.61-8.92-42.8-14.24-85.5-28.86-128.91-41.14-23.28-6.55-46.8-12.26-70.38-17.63-17.35-4.07-35.02-6.44-52.56-9.45-4.25-0.64-8.59-2.27-12.9-1.37-3.55 2.71-7.05 5.95-8.94 10.07-8.27 25.62-17.65 50.89-25.25 76.73-13.59 44.24-24.1 89.39-32.07 134.97-2.49 12.44-3.3 25.17-6.49 37.48-8.04 43.92-16.33 87.84-21.95 132.16-1.66 11.24-2.45 22.59-4.16 33.82-1.19 7.15 0.55 14.31 0.56 21.49-0.17 2.16 1.55 3.66 2.78 5.21 2.49-0.04 5 0.08 7.47 0.53-11.43-0.01-22.88 0.43-34.27-0.57-10.7 0.33-21.35-0.57-32.04-0.39h-58c-9.01-0.3-17.99 0.62-27 0.4-27 0.09-54.01-0.24-81 0.29-30.36-0.11-60.68 0.96-91.04 0.8199-15.31 0.69-30.65-0.0099-45.96 0.48-8.94-0.38-17.91 1.09-26.81 0.14-3.95-2.5-3.78-7.61-5.82-11.34-1.61-2.95-2.95-6.06-3.21-9.44 22.28-0.57 44.55 0.79 66.84 0.49 14-0.25 27.99 0.48 41.99 0.32 16.67 0.06 33.34-0.21 50 0.34 70.01-0.07 140.02 0.06 210.03-0.07 2.42-0.38 7.35 0.55 6.9-3.29 0.09-8.97 0.47-17.96 1.31-26.89 1.17-6.96 2.21-13.95 2.5-21.01 0.6-19.01 4.05-37.75 6.82-56.51 4.25-25.85 9.21-51.58 14.94-77.15 6.3-27.97 11.64-56.15 17.77-84.16 5.75-27.64 12.94-54.95 19.71-82.35 4.67-16.54 8.51-33.35 14.43-49.51 5.5499-13.87 11.62-27.54 17.57-41.25z" fill="#aaa" stroke="#aaa"/>
	<path d="m429.79 495.82c0.91-1.58 2.63-2.11 4.28-2.57 2.68 12.84 4.38 25.86 6.8 38.75 0.62 4.82 1.66 10.33-1.31 14.62-4.39 6.81-9.29 13.3-14.03 19.86-0.5 2.38-0.09 4.82 0.09 7.22 0.67 6.41 0.33 12.88 1.11 19.29 1.13 8.49 1.94 17.01 3.8 25.39-2.04 7.57-4.99 14.84-8.06 22.04-6.87 15.03-13.83 30.15-23.34 43.72-1.4-6.97-1.07-14.09-1.14-21.14-0.32-9 0.07-18.02-0.76-26.99-0.4-5.6-1.78-11.07-2.09-16.67 1.19-1.61 2.22-3.33 2.95-5.19 3.7-9.19 7.58-18.31 11.68-27.32 1.73-6.32 4.43-12.39 5.63-18.83 0.86-4.35-3.01-7.29-4.56-10.93-2.31-5.1-4.1-10.41-6.35-15.54-0.94-3.3-3.14-7.4301-0.3-10.39 8.84-11.55 17.22-23.44 25.6-35.32z" fill="#F7482E" stroke="#F7482E"/>
	<path d="m912.36 504.34c4.31-0.9 8.65 0.73 12.9 1.37 17.54 3.01 35.21 5.38 52.56 9.45 23.58 5.3701 47.1 11.08 70.38 17.63 43.41 12.28 86.11 26.9 128.91 41.14 8.24 2.85 16.65 5.32 24.61 8.92-0.52 3.15-1.2 6.33-2.6899 9.1801-9.7101 19.83-16.83 40.75-24.59 61.38-7.45 20.57-15.09 41.07-22.22 61.75-13.81 40.82-27.09 81.83-40.12 122.91-9.59 30.27-18.82 60.68-26.28 91.55-1.2799 4.63-1.3899 9.51-3.0499 14.05-2.3101 6.83-3.4301 13.98-5.13 20.98-0.85 1.72-2.46 3.73-4.61 3.52-11.03 0.05-22.07 0.08-33.07 0.83-10.52 1.56-21.16 0.43-31.71-0.18-52.24-2.03-104.37-5.97-156.53-9.58-9.1299-0.87-18.34-1.06-27.41-2.44-2.47-0.45-4.98-0.57-7.47-0.53-1.23-1.55-2.95-3.05-2.78-5.21-0.01-7.18-1.75-14.34-0.56-21.49 1.71-11.23 2.5-22.58 4.16-33.82 5.6201-44.32 13.91-88.24 21.95-132.16 3.19-12.31 4-25.04 6.49-37.48 7.97-45.58 18.48-90.73 32.07-134.97 7.6-25.84 16.98-51.11 25.25-76.73 1.8901-4.12 5.3901-7.36 8.9401-10.07z" fill="#C4C4C4" stroke="#C4C4C4"/>
	<path d="m451.14 733.18c19.93-6.38 40.86-10.48 61.87-9.4 1.42-0.1201 2.47 0.93 3.38 1.8799 7.34 8.65 14.19 17.75 20.03 27.5 4.83 9.14 10.29 17.98 16.64 26.16 4.26 6.87 8.82 13.55 13.42 20.19 2.75 4.91 5.43 9.86 8.18 14.79 5.79 10.47 9.11 22.5 8.3 34.51-0.22 3.57 0.21 7.21-0.53 10.74-2.51 5.41-6.72 9.83-10.87 14.04-2.17 2.45-5.57 2.93-8.12 4.85-3.84 2.49-7.08 6.29-11.8 7.11-6.21 0.75-12.45-0.14-18.44-1.79-2.39-0.9-4.55-2.45-7.12-2.8-8.87-0.81-17.93 0.44-26.67-1.59-16.31-4.51-33.01-8.13-48.36-15.46-7.99-3.85-16.89-5.73-24.36-10.65-3.03-1.99-6.23-3.76-9.71-4.81-1.48-1.49-2.92-3.17-3.21-5.31-1.52-7.62-0.72-15.44-0.91-23.14-0.33-21.12 2.15-42.56 9.72-62.39 1.43-3.88 2.41-7.96 4.33-11.64 1.19-2.53 3.89-3.66 6.26-4.8l0.76-0.34c5.6-2.8499 11.32-5.4699 17.21-7.6499z" fill="#F8C5B0" stroke="#F8C5B0"/>
	<path d="m639.78 730.75c11.72-4.62 24.86-4.25 37.03-1.75 11.71 5.17 21.52 13.71 30.21 22.97 6.09 6.33 11.69 13.12 16.54 20.45 2.51 3.83 5.81 7.68 5.9 12.5 0.15 3.61 0.72 7.3-0.08 10.87-3.35 10.71-8.27 20.89-14.19 30.41-12.84 21.92-29.68 41.87-50.76 56.26-6.99 4.89-15.51 8.48-24.2 7.27-5.92-4.27-11.33-9.48-15.3-15.68-5.06-6.44-5.12-15.01-6.25-22.72-2.12-4.52-7.54-3.57-11.59-3.32-1.9-3.25-3.77-6.55-4.9-10.16-7.22-24.52-11.55-50.17-9.99-75.78 0.6-3.2 1.87-6.23 3.09-9.23 1.65-2.19 3.77-4.13 6.3-5.25 8.21-3.79 16.63-7.11 24.61-11.37 4.31-2.3299 8.83-4.2599 13.58-5.4699z" fill="#F8C5B0" stroke="#F8C5B0"/>
	<path d="m372.44 743.25c11.18-2.05 22.86 0.09 34.03-2.25l0.01 0.6c8.9-0.12 17.8 0.03 26.69-0.43-2.37 1.14-5.07 2.27-6.26 4.8-1.92 3.6801-2.9 7.76-4.33 11.64-7.57 19.83-10.05 41.27-9.72 62.39 0.19 7.7-0.61 15.52 0.91 23.14 0.29 2.14 1.73 3.82 3.21 5.31-7.05 0.12-14.01-1.14-20.91-2.36-11.01-0.4901-22.05 0.12-33.05-0.26-2.48 0.09-3.88-2.44-4.32-4.54-1.56-7.32-2.55-14.8-2.43-22.3 0.2-11.41-0.67-22.95 1.55-34.23 1.98-9.15 2.81-18.67 6.52-27.35 2.12-4.97 3.58-10.75 8.1-14.16z" fill="#fff" stroke="#fff"/>
	<path d="m536.42 753.16c6.82-0.97 13.77-0.36 20.65-0.27-5.68 7.56-2.78 17.71-4.01 26.43-6.35-8.18-11.81-17.02-16.64-26.16z" fill="#8B8B8B" stroke="#8B8B8B"/>
	<path d="m557.07 752.89c8.27-0.79 16.61 0.41 24.91 0.3 4.41-0.51 8.87-0.84 13.31-0.35-1.22 3-2.49 6.03-3.09 9.23-1.56 25.61 2.77 51.26 9.99 75.78 1.13 3.61 3 6.91 4.9 10.16-8 1.26-16.09 0.41-24.13 0.8 0.81-12.01-2.51-24.04-8.3-34.51-2.75-4.93-5.43-9.88-8.18-14.79-4.6-6.64-9.16-13.32-13.42-20.19 1.23-8.72-1.67-18.87 4.01-26.43z" fill="#fff" stroke="#fff"/>
	<path d="m766.72 914.86c0.58-0.02 1.75-0.06 2.33-0.08 6.14 4.09 12.32 9.28 14.87 16.45-4.27-3.04-7.81-6.97-12.04-10.05-2.29-1.6-4.14-3.72-5.16-6.32z" fill="#A8A8A8" stroke="#A8A8A8"/>
</g>
</svg>
